<svg xmlns="http://www.w3.org/2000/svg" viewBox="0 0 32 32">
  <rect width="32" height="32" rx="6" fill="#0F555A"/>
  <path d="M12.084 20.539 11 24.333l-1.084-3.794a6 6 0 0 0-4.12-4.12L2 16l3.795-1.084a6 6 0 0 0 4.12-4.12L11 7l1.084 3.795a6 6 0 0 0 4.12 4.12L20 16l-3.795 1.084a6 6 0 0 0-4.12 4.12ZM24.346 11.62 24 13l-.346-1.38a4.5 4.5 0 0 0-3.274-3.274L19 8l1.38-.346a4.5 4.5 0 0 0 3.274-3.274L24 3l.346 1.38a4.5 4.5 0 0 0 3.274 3.274L29 8l-1.38.346a4.5 4.5 0 0 0-3.274 3.274ZM22.526 27.423 22 29.333l-.526-1.91a3 3 0 0 0-1.897-1.897L18 25l1.91-.526a3 3 0 0 0 1.897-1.897L22 20.667l.526 1.91a3 3 0 0 0 1.897 1.897L26 25l-1.91.526a3 3 0 0 0-1.897 1.897Z" fill="#B1EC04"/>
</svg>
